<?xml version="1.0" encoding="UTF-8"?>
<svg version="1.1" xmlns="http://www.w3.org/2000/svg" width="256" height="256">
<path d="M0 0 C84.48 0 168.96 0 256 0 C256 84.48 256 168.96 256 256 C171.52 256 87.04 256 0 256 C0 171.52 0 87.04 0 0 Z " fill="#FDFDFD" transform="translate(0,0)"/>
<path d="M0 0 C12.07664461 6.22701988 19.6559355 15.4647307 24.25 28.16015625 C27.65386685 39.7669647 26.90422535 55.63805872 21.7265625 66.54296875 C21.23929687 67.40664062 20.75203125 68.2703125 20.25 69.16015625 C19.80398437 69.98257813 19.35796875 70.805 18.8984375 71.65234375 C13.26552512 80.99857267 4.774017 88.08541025 -5.75 91.16015625 C-16.049602 92.97849708 -24.28539074 89.85434388 -32.75 84.16015625 C-42.21024235 76.12448256 -48.67237522 64.58651695 -49.75 52.16015625 C-50.75116804 36.36047309 -48.42870102 22.35895562 -37.83203125 9.90625 C-27.76210744 -0.67009164 -14.20682022 -5.61482785 0 0 Z " fill="#0D155C" transform="translate(202.75,13.83984375)"/>
<path d="M0 0 C10.01027128 4.62696983 15.64510082 13.18617726 19.875 23.0625 C21.37059025 27.33936334 21.27990576 31.52150784 21 36 C20.36191406 36.06058594 19.72382812 36.12117188 19.06640625 36.18359375 C18.24011719 36.26738281 17.41382812 36.35117188 16.5625 36.4375 C15.73878906 36.51871094 14.91507812 36.59992188 14.06640625 36.68359375 C12.01337975 36.78930815 12.01337975 36.78930815 11 38 C10.84747691 39.91240484 10.77807227 41.83172799 10.75 43.75 C10.72421875 44.79671875 10.6984375 45.8434375 10.671875 46.921875 C11.05919906 50.55534354 11.52315813 52.28912583 14 55 C15.96974074 55.47878024 15.96974074 55.47878024 18.12402344 55.63574219 C19.4030957 55.75594727 20.68216797 55.87615234 22 56 C22.12746075 63.07988112 22.21462725 70.15946305 22.2746582 77.24023438 C22.29970084 79.6456203 22.333745 82.05093089 22.37719727 84.45605469 C22.4382988 87.92662206 22.46631363 91.39617772 22.48828125 94.8671875 C22.51408768 95.93113739 22.5398941 96.99508728 22.56648254 98.09127808 C22.56965909 106.67330168 20.29356753 113.78720479 14.3125 120.125 C12 122 12 122 10 122 C9.94392578 120.44152344 9.94392578 120.44152344 9.88671875 118.8515625 C9.2763275 104.84787562 7.27371502 94.58253885 -3.375 84.6875 C-9.09834686 80.09128928 -15.0892632 78.32356731 -22.41796875 78.59375 C-30.07803996 79.79896544 -35.77062045 83.93385167 -40.53515625 89.88671875 C-45.6525411 97.2693993 -48.20727728 104.89396149 -48.625 113.875 C-48.66367187 114.56335938 -48.70234375 115.25171875 -48.7421875 115.9609375 C-48.83548166 117.64023246 -48.91878238 119.32007767 -49 121 C-53.2657579 120.16287841 -54.54889947 118.63711691 -57 115 C-60.46629033 108.67197417 -60.39304298 103.05930365 -60.29296875 95.94140625 C-60.28872391 94.79711655 -60.28447906 93.65282684 -60.28010559 92.47386169 C-60.26337804 88.83649689 -60.22573565 85.19969598 -60.1875 81.5625 C-60.17244556 79.08920074 -60.15875848 76.61589275 -60.14648438 74.14257812 C-60.11349386 68.09486126 -60.06335313 62.04747093 -60 56 C-57.98113505 55.53689575 -55.9622701 55.0737915 -53.94340515 54.61068726 C-51.83023383 54.09366341 -51.83023383 54.09366341 -50.01953125 52.2265625 C-48.75307667 49.46074216 -48.6343154 47.41061357 -48.6875 44.375 C-48.69136719 43.41335937 -48.69523437 42.45171875 -48.69921875 41.4609375 C-48.76500806 38.82425997 -48.76500806 38.82425997 -51 37 C-53.20250992 36.53993654 -53.20250992 36.53993654 -55.625 36.375 C-56.44226562 36.30023438 -57.25953125 36.22546875 -58.1015625 36.1484375 C-58.72804687 36.09945312 -59.35453125 36.05046875 -60 36 C-60.90216894 25.85059941 -55.93047962 16.00208552 -50 8 C-47.56678176 5.33661247 -45.16182325 2.77292518 -42 1 C-39.87939453 1.43237305 -39.87939453 1.43237305 -38 2 C-37.84442627 2.72775635 -37.68885254 3.4555127 -37.52856445 4.20532227 C-35.6897111 12.80440787 -33.84639222 21.40253039 -32 30 C-31.74959961 31.16660156 -31.49919922 32.33320312 -31.24121094 33.53515625 C-30.5586047 36.71136488 -29.87352535 39.88702833 -29.1875 43.0625 C-28.9810083 44.02422119 -28.7745166 44.98594238 -28.56176758 45.97680664 C-28.36993896 46.86231201 -28.17811035 47.74781738 -27.98046875 48.66015625 C-27.81442139 49.42980713 -27.64837402 50.19945801 -27.47729492 50.99243164 C-26.98685126 53.18648184 -26.98685126 53.18648184 -26 56 C-23.87422093 55.9131724 -21.74930419 55.8050049 -19.625 55.6875 C-18.44164062 55.62949219 -17.25828125 55.57148437 -16.0390625 55.51171875 C-14.53472656 55.25841797 -14.53472656 55.25841797 -13 55 C-11.13982234 52.20973351 -10.60724347 50.90699396 -9.97851562 47.74731445 C-9.8049353 46.89244949 -9.63135498 46.03758453 -9.45251465 45.15681458 C-9.27224731 44.23494858 -9.09197998 43.31308258 -8.90625 42.36328125 C-8.61796326 40.93316963 -8.61796326 40.93316963 -8.32385254 39.47416687 C-7.70961174 36.42149923 -7.10443313 33.3671233 -6.5 30.3125 C-5.89392227 27.27608431 -5.28594074 24.24006313 -4.67614746 21.20439148 C-4.29739423 19.31607322 -3.92104232 17.42727117 -3.54748535 15.53791809 C-2.50621888 10.31524423 -1.33513142 5.15563249 0 0 Z " fill="#0B125A" transform="translate(104,63)"/>
<path d="M0 0 C12.07664461 6.22701988 19.6559355 15.4647307 24.25 28.16015625 C27.65386685 39.7669647 26.90422535 55.63805872 21.7265625 66.54296875 C21.23929687 67.40664062 20.75203125 68.2703125 20.25 69.16015625 C19.80398437 69.98257813 19.35796875 70.805 18.8984375 71.65234375 C13.26552512 80.99857267 4.774017 88.08541025 -5.75 91.16015625 C-16.049602 92.97849708 -24.28539074 89.85434388 -32.75 84.16015625 C-42.21024235 76.12448256 -48.67237522 64.58651695 -49.75 52.16015625 C-50.75116804 36.36047309 -48.42870102 22.35895562 -37.83203125 9.90625 C-27.76210744 -0.67009164 -14.20682022 -5.61482785 0 0 Z M-34.05859375 20.75390625 C-40.62385301 30.09385937 -41.60924174 39.9664727 -40.75 51.16015625 C-39.25751839 57.83379163 -36.98443972 63.73478037 -32.75 69.16015625 C-31.8528125 70.45953125 -31.8528125 70.45953125 -30.9375 71.78515625 C-26.61189661 76.48152565 -21.39845366 78.78568153 -15.0859375 79.43359375 C-6.46445597 79.72931739 -0.30556929 78.10365289 6.28515625 72.3984375 C10.854136 67.61604468 13.1936901 62.3843631 15.25 56.16015625 C15.58 55.17015625 15.91 54.18015625 16.25 53.16015625 C17.06130618 40.07285653 16.83823928 29.30273004 8.125 18.78515625 C2.24039473 12.74670509 -3.70310237 9.01667161 -12.25 8.53515625 C-21.65104229 9.05227987 -28.18999385 13.64045182 -34.05859375 20.75390625 Z " fill="#171E62" transform="translate(202.75,13.83984375)"/>
<path d="M0 0 C7.06342783 4.02490671 10.96028142 9.3640893 13.625 16.9375 C14.73937003 21.27970045 14.77449953 25.54516839 14.75 30 C14.75580078 31.06057617 14.75580078 31.06057617 14.76171875 32.14257812 C14.75513133 35.65038049 14.48256135 38.50725459 13.625 41.9375 C-2.215 41.9375 -18.055 41.9375 -34.375 41.9375 C-36.21500236 38.25749529 -35.64602117 33.92609876 -35.6875 29.875 C-35.71650391 28.95783203 -35.74550781 28.04066406 -35.77539062 27.09570312 C-35.86353485 17.52866403 -32.76044393 10.59054833 -26.2109375 3.66796875 C-18.68302625 -3.42748802 -9.49819907 -4.32647982 0 0 Z " fill="#0A1259" transform="translate(95.375,149.0625)"/>
<path d="M0 0 C3.49911695 -0.20537903 6.99666666 -0.32829941 10.5 -0.4375 C11.48226562 -0.49615234 12.46453125 -0.55480469 13.4765625 -0.61523438 C19.05225692 -0.74533391 22.31879931 -0.33094706 26.625 3.3828125 C30.89938132 7.6405663 32.06518474 10.83488801 32.375 16.8125 C32.25269161 21.94180829 31.10846032 25.88390422 28 30 C23.51512446 33.56959482 20.00950537 35.1450653 14.3125 35.0625 C13.10013672 35.04896484 13.10013672 35.04896484 11.86328125 35.03515625 C11.24839844 35.02355469 10.63351563 35.01195312 10 35 C10.01160156 35.92683594 10.02320313 36.85367188 10.03515625 37.80859375 C10.04417969 39.00613281 10.05320313 40.20367187 10.0625 41.4375 C10.07410156 42.63246094 10.08570313 43.82742187 10.09765625 45.05859375 C10 48 10 48 9 49 C7.1875 49.1328125 7.1875 49.1328125 5 49.125 C4.278125 49.12757812 3.55625 49.13015625 2.8125 49.1328125 C1 49 1 49 0 48 C-0.09311889 46.49581261 -0.11746028 44.98728644 -0.11352539 43.48022461 C-0.11344986 42.51930405 -0.11337433 41.55838348 -0.11329651 40.56834412 C-0.10813522 39.523564 -0.10297394 38.47878387 -0.09765625 37.40234375 C-0.0962413 36.33834854 -0.09482635 35.27435333 -0.09336853 34.17811584 C-0.08775064 30.76454917 -0.07519511 27.351047 -0.0625 23.9375 C-0.05748731 21.62955824 -0.052924 19.32161545 -0.04882812 17.01367188 C-0.0377754 11.34242574 -0.02101987 5.67121747 0 0 Z " fill="#EFEFF4" transform="translate(175,34)"/>
<path d="M0 0 C3.26993535 0.18865012 5.2485272 0.98691088 8.25 2.1875 C11.34501208 2.44015405 13.45129973 2.58685013 16.25 1.1875 C18.99653852 -0.18576926 21.2222308 -0.00996321 24.25 0.1875 C24.91 0.5175 25.57 0.8475 26.25 1.1875 C25.55942584 7.39227264 24.474508 13.4450227 23.21875 19.55859375 C23.02277222 20.52152847 22.82679443 21.4844632 22.62487793 22.47657776 C22.21286978 24.4963343 21.79931225 26.51577535 21.38427734 28.53491211 C20.74716904 31.63879195 20.11745937 34.74411349 19.48828125 37.84960938 C19.08638083 39.81519487 18.68405249 41.78069292 18.28125 43.74609375 C18.09268433 44.67828232 17.90411865 45.61047089 17.70983887 46.57090759 C17.53295532 47.42592361 17.35607178 48.28093964 17.17382812 49.16186523 C17.01918091 49.91717026 16.86453369 50.67247528 16.7052002 51.45066833 C16.25 53.1875 16.25 53.1875 15.25 54.1875 C13.73071962 54.25929964 12.20832518 54.27142007 10.6875 54.25 C9.86121094 54.24097656 9.03492187 54.23195312 8.18359375 54.22265625 C7.54550781 54.21105469 6.90742187 54.19945312 6.25 54.1875 C4.81719478 47.60569499 3.39405009 41.0218543 1.97753906 34.43652344 C1.4947262 32.19743829 1.00972006 29.9588249 0.52246094 27.72070312 C-0.17833108 24.49992022 -0.87116655 21.27751213 -1.5625 18.0546875 C-1.78123779 17.05758759 -1.99997559 16.06048767 -2.2253418 15.03317261 C-3.21781927 10.37077505 -4.15102596 5.98506788 -3.75 1.1875 C-2.75 0.1875 -2.75 0.1875 0 0 Z " fill="#12195F" transform="translate(73.75,59.8125)"/>
<path d="M0 0 C9.58705027 7.40817521 14.30013026 16.32347695 16.75 28.125 C18.18439244 42.66017669 14.61182137 54.98350133 5.5625 66.375 C0.88520919 71.52515977 -6.38777064 75.66861746 -13.4140625 76.328125 C-23.91652074 76.52817182 -30.3181445 73.97517344 -37.953125 66.6484375 C-47.84263256 55.7834343 -50.02536399 43.93034962 -49.59765625 29.69921875 C-48.98414181 18.93962686 -43.82320973 9.17552092 -36 1.8125 C-24.84603462 -6.98810125 -12.00789279 -6.92763046 0 0 Z M-38.55859375 11.71875 C-45.12385301 21.05870312 -46.10924174 30.93131645 -45.25 42.125 C-43.75751839 48.79863538 -41.48443972 54.69962412 -37.25 60.125 C-36.3528125 61.424375 -36.3528125 61.424375 -35.4375 62.75 C-31.11189661 67.4463694 -25.89845366 69.75052528 -19.5859375 70.3984375 C-10.96445597 70.69416114 -4.80556929 69.06849664 1.78515625 63.36328125 C6.354136 58.58088843 8.6936901 53.34920685 10.75 47.125 C11.08 46.135 11.41 45.145 11.75 44.125 C12.56130618 31.03770028 12.33823928 20.26757379 3.625 9.75 C-2.25960527 3.71154884 -8.20310237 -0.01848464 -16.75 -0.5 C-26.15104229 0.01712362 -32.68999385 4.60529557 -38.55859375 11.71875 Z " fill="#ECECF2" transform="translate(207.25,22.875)"/>
<path d="M0 0 C3.93240243 1.90147031 6.46536085 4.22391091 8.9375 7.8125 C10.86010344 13.58031032 10.76943478 17.90036749 8.1875 23.3125 C6.10860329 27.2393049 4.28817462 29.57060846 0 31 C-7.1147541 31.68852459 -7.1147541 31.68852459 -10.8125 28.8125 C-11.534375 27.884375 -12.25625 26.95625 -13 26 C-13.598125 25.29875 -14.19625 24.5975 -14.8125 23.875 C-16.70160955 19.30136636 -16.64467932 14.8709104 -16 10 C-12.56374136 3.00021387 -8.04294908 -1.24804382 0 0 Z " fill="#ECECF2" transform="translate(88,26)"/>
<path d="M0 0 C1.65 0 3.3 0 5 0 C5 41.58 5 83.16 5 126 C3.35 126 1.7 126 0 126 C0 84.42 0 42.84 0 0 Z " fill="#12195F" transform="translate(188,110)"/>
<path d="M0 0 C15 0 15 0 20 3 C22.78636031 5.9262867 23.41209577 7.92497395 23.375 11.9375 C23.247191 16.06999103 22.73955438 18.75312074 20 22 C16.36280395 24.42479736 14.14296518 24.38662577 9.8125 24.625 C8.54019531 24.69976562 7.26789063 24.77453125 5.95703125 24.8515625 C4.98121094 24.90054688 4.00539062 24.94953125 3 25 C2.67 29.29 2.34 33.58 2 38 C1.34 38 0.68 38 0 38 C0 25.46 0 12.92 0 0 Z " fill="#F1F1F5" transform="translate(179,39)"/>
<path d="M0 0 C5.28 0 10.56 0 16 0 C16.08114826 3.70877584 16.14057594 7.41576511 16.1875 11.125 C16.21263672 12.17171875 16.23777344 13.2184375 16.26367188 14.296875 C16.31697697 19.91167825 16.35218162 24.23349467 13 29 C10 31 10 31 6.5 31 C3 30 3 30 1.29296875 27.7109375 C-0.58108622 22.33222988 -0.31723657 17.27353083 -0.1875 11.625 C-0.17396484 10.50738281 -0.16042969 9.38976562 -0.14648438 8.23828125 C-0.11127537 5.49197912 -0.05747288 2.74592643 0 0 Z " fill="#151C61" transform="translate(77,206)"/>
<path d="M0 0 C1.485 0.99 1.485 0.99 3 2 C6.10112786 2.28057679 6.10112786 2.28057679 9.5 2.1875 C11.21703125 2.17783203 11.21703125 2.17783203 12.96875 2.16796875 C16.04622101 2.13084584 16.04622101 2.13084584 19 1 C17.76595745 26.23404255 17.76595745 26.23404255 14 30 C12.48071962 30.07179964 10.95832518 30.08392007 9.4375 30.0625 C8.61121094 30.05347656 7.78492187 30.04445313 6.93359375 30.03515625 C5.97646484 30.01775391 5.97646484 30.01775391 5 30 C4.15446791 26.31518915 3.32579178 22.62678058 2.5 18.9375 C2.26152344 17.89916016 2.02304688 16.86082031 1.77734375 15.79101562 C0.58146201 10.40954781 -0.31288464 5.51459184 0 0 Z " fill="#151D61" transform="translate(75,84)"/>
<path d="M0 0 C3.93240243 1.90147031 6.46536085 4.22391091 8.9375 7.8125 C10.86010344 13.58031032 10.76943478 17.90036749 8.1875 23.3125 C6.10860329 27.2393049 4.28817462 29.57060846 0 31 C-7.1147541 31.68852459 -7.1147541 31.68852459 -10.8125 28.8125 C-11.534375 27.884375 -12.25625 26.95625 -13 26 C-13.598125 25.29875 -14.19625 24.5975 -14.8125 23.875 C-16.70160955 19.30136636 -16.64467932 14.8709104 -16 10 C-12.56374136 3.00021387 -8.04294908 -1.24804382 0 0 Z M-12 10 C-13.5547669 13.10953379 -13.28644437 15.56266761 -13 19 C-11.24505919 22.10039543 -9.51174333 24.48825667 -7 27 C-3.62693382 27.58414702 -3.62693382 27.58414702 0 27 C2.8971941 24.68726558 2.8971941 24.68726558 5 22 C5.33 21.67 5.66 21.34 6 21 C6.67751923 16.48063881 7.23584432 11.88591272 4.6484375 7.9375 C1.83462824 5.35920782 -0.4015282 4.14363323 -4.125 3.25 C-8.36404023 4.35583658 -9.5072076 6.438868 -12 10 Z " fill="#1B2265" transform="translate(88,26)"/>
<path d="M0 0 C1.12019531 -0.00773438 2.24039063 -0.01546875 3.39453125 -0.0234375 C10.20696215 -0.00753918 16.5094163 0.60686493 23.125 2.25 C22.17651367 4.22558594 22.17651367 4.22558594 20.125 6.25 C17.06012535 6.60498268 14.36010942 6.71603182 11.30078125 6.640625 C10.00867989 6.63213531 10.00867989 6.63213531 8.69047546 6.62347412 C5.93891852 6.6010813 3.18866337 6.5508808 0.4375 6.5 C-1.42771557 6.4799387 -3.29295155 6.46168728 -5.15820312 6.4453125 C-9.73097042 6.40120713 -14.3027645 6.33216057 -18.875 6.25 C-19.535 4.93 -20.195 3.61 -20.875 2.25 C-13.86450355 0.09028716 -7.30396447 -0.05008433 0 0 Z " fill="#161E62" transform="translate(83.875,194.75)"/>
<path d="M0 0 C15 0 15 0 20 3 C22.78636031 5.9262867 23.41209577 7.92497395 23.375 11.9375 C23.247191 16.06999103 22.73955438 18.75312074 20 22 C16.36280395 24.42479736 14.14296518 24.38662577 9.8125 24.625 C8.54019531 24.69976562 7.26789063 24.77453125 5.95703125 24.8515625 C4.98121094 24.90054688 4.00539062 24.94953125 3 25 C2.67 29.29 2.34 33.58 2 38 C1.34 38 0.68 38 0 38 C0 25.46 0 12.92 0 0 Z M2 4 C1.90013025 6.84335048 1.86122119 9.65697163 1.875 12.5 C1.87113281 13.29792969 1.86726562 14.09585938 1.86328125 14.91796875 C1.4910039 18.7683932 1.4910039 18.7683932 3 22 C5.10029986 22.152323 7.20687139 22.22189372 9.3125 22.25 C11.03919922 22.28867187 11.03919922 22.28867187 12.80078125 22.328125 C16.2593118 21.97340392 17.58796752 21.45213754 20 19 C20.89816754 16.30549738 21.25217363 14.36388595 21.375 11.5625 C21.42398438 10.80066406 21.47296875 10.03882813 21.5234375 9.25390625 C21.14575477 6.7810495 21.14575477 6.7810495 18.8984375 4.734375 C15.39339534 2.63701824 13.30251456 2.55455552 9.25 2.6875 C8.10015625 2.71199219 6.9503125 2.73648438 5.765625 2.76171875 C3.09230727 2.69309319 3.09230727 2.69309319 2 4 Z " fill="#212869" transform="translate(179,39)"/>
<path d="M0 0 C1.485 0.99 1.485 0.99 3 2 C6.10112786 2.28057679 6.10112786 2.28057679 9.5 2.1875 C11.21703125 2.17783203 11.21703125 2.17783203 12.96875 2.16796875 C16.04622101 2.13084584 16.04622101 2.13084584 19 1 C18.88655624 3.1464753 18.75893655 5.29220592 18.625 7.4375 C18.55539063 8.63246094 18.48578125 9.82742187 18.4140625 11.05859375 C18.27742188 12.02925781 18.14078125 12.99992187 18 14 C17.01 14.495 17.01 14.495 16 15 C15.67 13.68 15.34 12.36 15 11 C13.39667209 10.91878076 11.79215974 10.86070866 10.1875 10.8125 C9.29417969 10.77769531 8.40085937 10.74289063 7.48046875 10.70703125 C4.58352485 11.04918998 3.77444972 11.75393573 2 14 C0.4087311 9.126739 -0.21192221 5.19209404 0 0 Z " fill="#0B135A" transform="translate(75,84)"/>
<path d="M0 0 C0 2.97 0 5.94 0 9 C-4.95 9 -9.9 9 -15 9 C-15 7.35 -15 5.7 -15 4 C-13.06441401 3.32779649 -11.12645628 2.66241923 -9.1875 2 C-8.10855469 1.62875 -7.02960937 1.2575 -5.91796875 0.875 C-3 0 -3 0 0 0 Z " fill="#252C6C" transform="translate(68,38)"/>
<path d="M0 0 C0.99 0.103125 1.98 0.20625 3 0.3125 C5 3.3125 5 3.3125 4.75 6.875 C4 10.3125 4 10.3125 2 12.3125 C-0.5 12.625 -0.5 12.625 -3 12.3125 C-5.44897847 8.63903229 -5.31537716 6.64893601 -5 2.3125 C-3 0.3125 -3 0.3125 0 0 Z " fill="#131A5F" transform="translate(85,35.6875)"/>
<path d="M0 0 C0.74886475 0.00523682 1.49772949 0.01047363 2.26928711 0.01586914 C3.07817383 0.0190918 3.88706055 0.02231445 4.72045898 0.02563477 C5.5705957 0.03401367 6.42073242 0.04239258 7.29663086 0.05102539 C8.15063477 0.05553711 9.00463867 0.06004883 9.88452148 0.06469727 C12.00108749 0.07652166 14.11761771 0.0944577 16.23413086 0.11352539 C16.23413086 1.76352539 16.23413086 3.41352539 16.23413086 5.11352539 C10.29413086 5.11352539 4.35413086 5.11352539 -1.76586914 5.11352539 C-2.09586914 3.79352539 -2.42586914 2.47352539 -2.76586914 1.11352539 C-1.76586914 0.11352539 -1.76586914 0.11352539 0 0 Z " fill="#F2F2F6" transform="translate(77.765869140625,68.886474609375)"/>
<path d="M0 0 C6.8359375 -0.1953125 6.8359375 -0.1953125 9 0 C11 2 11 2 11.25 4.5 C11 7 11 7 9 9 C5.98173347 9.27240673 3.03629378 9.08675125 0 9 C0 6.03 0 3.06 0 0 Z " fill="#232A6A" transform="translate(185,47)"/>
<path d="M0 0 C1.58468677 0.45363171 3.16769924 0.91311452 4.75 1.375 C5.63171875 1.63023438 6.5134375 1.88546875 7.421875 2.1484375 C9.76080572 2.9209934 11.83442562 3.83625676 14 5 C14 6.32 14 7.64 14 9 C9.38 9 4.76 9 0 9 C0 6.03 0 3.06 0 0 Z " fill="#161E62" transform="translate(102,38)"/>
<path d="M0 0 C5.40685333 -0.55171973 8.35434722 0.20309429 12.48828125 3.51953125 C15.3722875 6.3439198 16.85009469 9.1159628 17.171875 13.16015625 C17.18561334 15.10756528 17.10059608 17.0551424 17 19 C16.67 19 16.34 19 16 19 C15.67 17.02 15.34 15.04 15 13 C14.67 14.65 14.34 16.3 14 18 C13.67 18 13.34 18 13 18 C12.95875 16.783125 12.9175 15.56625 12.875 14.3125 C12.45966271 10.96606815 11.80483152 9.28978902 9.25 7.0625 C6.28839325 5.18301879 4.44701223 4.30414814 1 4 C0.67 2.68 0.34 1.36 0 0 Z " fill="#2D3471" transform="translate(81,26)"/>
<path d="M0 0 C4.29 0 8.58 0 13 0 C13.33 1.65 13.66 3.3 14 5 C13 6 13 6 10.05859375 6.09765625 C8.26615234 6.08025391 8.26615234 6.08025391 6.4375 6.0625 C4.64119141 6.04896484 4.64119141 6.04896484 2.80859375 6.03515625 C1.88175781 6.02355469 0.95492187 6.01195313 0 6 C-1.125 2.25 -1.125 2.25 0 0 Z " fill="#DCDDE8" transform="translate(78,81)"/>
<path d="M0 0 C2.77481079 2.9192014 3.4119398 4.94184522 3.375 8.9375 C3.247191 13.06999103 2.73955438 15.75312074 0 19 C-3.83542457 21.55694972 -5.65902533 21.04045639 -10.1875 20.625 C-12.09595703 20.45871094 -12.09595703 20.45871094 -14.04296875 20.2890625 C-15.01878906 20.19367187 -15.99460938 20.09828125 -17 20 C-17 19.67 -17 19.34 -17 19 C-15.64455078 18.92652344 -15.64455078 18.92652344 -14.26171875 18.8515625 C-13.08222656 18.77679688 -11.90273437 18.70203125 -10.6875 18.625 C-8.92986328 18.52058594 -8.92986328 18.52058594 -7.13671875 18.4140625 C-3.84300113 18.21386253 -3.84300113 18.21386253 -1 16 C-0.0880791 13.2642373 0.22244822 11.34374032 0.3125 8.5 C0.34988281 7.7265625 0.38726562 6.953125 0.42578125 6.15625 C0.17165551 3.88366394 0.17165551 3.88366394 -1.59765625 2.26171875 C-4.71161934 0.62625521 -7.24826789 0.48758661 -10.75 0.3125 C-11.92046875 0.24675781 -13.0909375 0.18101563 -14.296875 0.11328125 C-15.18890625 0.07589844 -16.0809375 0.03851563 -17 0 C-17 -0.33 -17 -0.66 -17 -1 C-14.91814549 -1.22262606 -12.83439574 -1.42757926 -10.75 -1.625 C-9.58984375 -1.74101563 -8.4296875 -1.85703125 -7.234375 -1.9765625 C-3.97486369 -2.00018215 -2.6039877 -1.87809733 0 0 Z " fill="#1E2567" transform="translate(199,42)"/>
<path d="M0 0 C2.64 0 5.28 0 8 0 C8 3.3 8 6.6 8 10 C5.125 10.1875 5.125 10.1875 2 10 C-0.4294516 6.3558226 -0.16179575 4.28758728 0 0 Z " fill="#252B6B" transform="translate(118,104)"/>
<path d="M0 0 C2.64 0 5.28 0 8 0 C8.25 6.625 8.25 6.625 6 10 C2.875 10.1875 2.875 10.1875 0 10 C0 6.7 0 3.4 0 0 Z " fill="#22296A" transform="translate(44,104)"/>
<path d="M0 0 C3.3 0 6.6 0 10 0 C10.33 2.31 10.66 4.62 11 7 C9.54077307 6.88590407 8.08259402 6.75834456 6.625 6.625 C5.40683594 6.52058594 5.40683594 6.52058594 4.1640625 6.4140625 C2 6 2 6 0 4 C0 2.68 0 1.36 0 0 Z " fill="#2C3270" transform="translate(44,16)"/>
<path d="M0 0 C1.37478516 0.01740234 1.37478516 0.01740234 2.77734375 0.03515625 C3.69644531 0.04417969 4.61554688 0.05320312 5.5625 0.0625 C6.27277344 0.07410156 6.98304687 0.08570313 7.71484375 0.09765625 C7.14139438 2.96490311 6.85339225 3.95910775 4.71484375 6.09765625 C2.05947003 6.66285628 -0.57660338 6.83553823 -3.28515625 7.09765625 C-3.32769981 5.09810879 -3.32596408 3.09723989 -3.28515625 1.09765625 C-2.28515625 0.09765625 -2.28515625 0.09765625 0 0 Z " fill="#282F6E" transform="translate(118.28515625,15.90234375)"/>
<path d="M0 0 C3.3 0 6.6 0 10 0 C10 1.65 10 3.3 10 5 C6.37 5 2.74 5 -1 5 C-0.67 3.35 -0.34 1.7 0 0 Z " fill="#ECEDF2" transform="translate(80,94)"/>
<path d="M0 0 C1.82756545 3.6551309 0.91562888 6.4033879 0.1875 10.375 C-0.1425 10.375 -0.4725 10.375 -0.8125 10.375 C-0.94270833 8.38932292 -1.07291667 6.40364583 -1.203125 4.41796875 C-1.68107336 2.2554191 -1.68107336 2.2554191 -3.4375 0.65625 C-6.53697709 -1.01583633 -9.05782146 -1.13726607 -12.5625 -1.3125 C-13.73296875 -1.37824219 -14.9034375 -1.44398437 -16.109375 -1.51171875 C-17.00140625 -1.54910156 -17.8934375 -1.58648437 -18.8125 -1.625 C-18.8125 -1.955 -18.8125 -2.285 -18.8125 -2.625 C-16.73064549 -2.84762606 -14.64689574 -3.05257926 -12.5625 -3.25 C-11.40234375 -3.36601563 -10.2421875 -3.48203125 -9.046875 -3.6015625 C-4.90318808 -3.63158922 -3.02335008 -2.71058972 0 0 Z " fill="#373D78" transform="translate(200.8125,43.625)"/>
<path d="M0 0 C0.66 0.33 1.32 0.66 2 1 C-1.96 4.96 -5.92 8.92 -10 13 C-10 8.83248505 -7.76127698 6.85829482 -5 4 C-3.36927384 2.62294236 -1.7133562 1.27277889 0 0 Z " fill="#2D3371" transform="translate(62,64)"/>
<path d="M0 0 C0.99 0 1.98 0 3 0 C3 2.64 3 5.28 3 8 C2.01 8 1.02 8 0 8 C0 5.36 0 2.72 0 0 Z " fill="#313774" transform="translate(97,206)"/>
<path d="M0 0 C0.99 0 1.98 0 3 0 C3 2.31 3 4.62 3 7 C2.01 7 1.02 7 0 7 C0 4.69 0 2.38 0 0 Z " fill="#252C6C" transform="translate(70,206)"/>
</svg>
